<?xml version="1.0" encoding="UTF-8" standalone="no"?><!DOCTYPE svg PUBLIC "-//W3C//DTD SVG 1.1//EN" "http://www.w3.org/Graphics/SVG/1.1/DTD/svg11.dtd"><svg width="100%" height="100%" viewBox="0 0 20 20" version="1.1" xmlns="http://www.w3.org/2000/svg" xmlns:xlink="http://www.w3.org/1999/xlink" xml:space="preserve" xmlns:serif="http://www.serif.com/" style="fill-rule:evenodd;clip-rule:evenodd;stroke-linejoin:round;stroke-miterlimit:2;"><path id="About" d="M10,0c5.519,0 10,4.481 10,10c0,5.519 -4.481,10 -10,10c-5.519,0 -10,-4.481 -10,-10c0,-5.519 4.481,-10 10,-10Zm1.283,17.5l0,-3.19l-3.326,0l0,3.19l3.326,0Zm-3.018,-8.075l-0.103,0.1l0.472,3.23l2.095,0l0.226,-1.217c2.238,-0.438 4.045,-1.475 4.045,-4.027c0,-2.672 -2.012,-4.147 -4.969,-4.147c-2.238,0 -3.84,0.877 -5.031,2.153l1.889,2.014c0.945,-0.917 1.93,-1.376 3.08,-1.376c1.191,0 1.889,0.519 1.889,1.436c0,1.076 -1.006,1.734 -3.593,1.834Z" style="fill:#f8faf9;"/></svg>